<?xml version="1.0" encoding="utf-8"?>
<!-- Generator: Adobe Illustrator 18.1.1, SVG Export Plug-In . SVG Version: 6.00 Build 0)  -->
<svg version="1.1" id="Your_Icon" xmlns="http://www.w3.org/2000/svg" xmlns:xlink="http://www.w3.org/1999/xlink" x="0px" y="0px"
	 viewBox="-255 347 100 100" enable-background="new -255 347 100 100" xml:space="preserve">
<path fill="#FFFFFF" d="M-179,371.7h-31.4v19.5h31.4L-179,371.7L-179,371.7z M-183.6,386.6h-22v-10.2h22
	C-183.6,376.4-183.6,386.6-183.6,386.6z"/>
<rect x="-203.8" y="379.3" fill="#FFFFFF" width="18.2" height="4.7"/>
<path fill="#FFFFFF" d="M-169.9,353.8V347h-48.4c-3.6,0-6.6,2.9-6.6,6.6V365h-14.3c-3.6,0-6.6,2.9-6.6,6.6v69.1h0
	c0.1,3.5,3,6.3,6.6,6.3h0.7c3.2,0,53.1,0,53.1,0h2.3v-18c10.1,0,18.5,0,18.5,0h2.3v-75.2H-169.9z M-220.2,353.6c0-1,0.8-1.9,1.9-1.9
	h43.7v64.2h-45.6V353.6z M-241,371.6c0-1,0.8-1.9,1.9-1.9h14.3v52.9h0c0.1,3.5,3,6.3,6.6,6.3h0.7c1.4,0,11.3,0,22.2,0v4.9H-241
	V371.6z M-187.7,442.3c-9.9,0-48,0-50.8,0h-0.7c-1,0-1.9-0.8-1.9-1.9c0-1,0.8-1.9,1.9-1.9h48.4V429c1,0,2.1,0,3.1,0L-187.7,442.3
	L-187.7,442.3z M-166.9,424.3c-3.3,0-49.6,0.1-50.8,0.1l-0.7-0.1c-1,0-1.9-0.8-1.9-1.9c0-1,0.8-1.9,1.9-1.9h48.4v-62.1h3.1V424.3z"
	/>
</svg>
