<?xml version="1.0" encoding="utf-8"?>
<!-- Generator: Adobe Illustrator 18.1.1, SVG Export Plug-In . SVG Version: 6.00 Build 0)  -->
<svg version="1.1" id="Your_Icon" xmlns="http://www.w3.org/2000/svg" xmlns:xlink="http://www.w3.org/1999/xlink" x="0px" y="0px"
	 viewBox="-255 347 100 100" enable-background="new -255 347 100 100" xml:space="preserve">
<path fill="#FFFFFF" stroke="#FFFFFF" stroke-miterlimit="10" d="M-157.7,357h-94.7c-1.5,0-2.7,1.2-2.7,2.7V372v62.3
	c0,1.5,1.2,2.7,2.7,2.7h94.7c1.5,0,2.7-1.2,2.7-2.7V372v-12.3C-155,358.2-156.2,357-157.7,357z M-160,432h-90v-55h90V432z M-250,372
	v-10h90v10H-250z"/>
<circle fill="#FFFFFF" cx="-245" cy="367" r="2"/>
<circle fill="#FFFFFF" cx="-237.5" cy="367" r="2"/>
<circle fill="#FFFFFF" cx="-230" cy="367" r="2"/>
<path fill="#FFFFFF" d="M-222.9,420.4c-0.8,0.8-2,0.8-2.8,0l-13.7-13.7c-0.9-0.9-0.9-2.4,0-3.3l13.7-13.7c0.8-0.8,2-0.8,2.8,0
	l0.6,0.6c0.8,0.8,0.8,2.2,0,3l-11.6,11.6c-0.1,0.1-0.1,0.2,0,0.2l11.7,11.7c0.8,0.8,0.8,2,0,2.8L-222.9,420.4z"/>
<path fill="#FFFFFF" d="M-187,420.4c0.8,0.8,2,0.8,2.8,0l13.7-13.7c0.9-0.9,0.9-2.4,0-3.3l-13.7-13.7c-0.8-0.8-2-0.8-2.8,0l-0.6,0.6
	c-0.8,0.8-0.8,2.2,0,3l11.6,11.6c0.1,0.1,0.1,0.2,0,0.2l-11.7,11.7c-0.8,0.8-0.8,2,0,2.8L-187,420.4z"/>
<path fill="#FFFFFF" d="M-193.6,389c-0.1-0.5-0.5-0.9-0.9-1.2l-0.9-0.5c-0.9-0.5-2.1-0.2-2.7,0.7l-18.1,31.6c-0.3,0.5-0.3,1-0.2,1.5
	c0.1,0.5,0.5,0.9,0.9,1.2l0.9,0.5c0.9,0.5,2.1,0.2,2.7-0.7l18.1-31.6C-193.5,390-193.5,389.5-193.6,389z"/>
</svg>
