<?xml version="1.0" encoding="utf-8"?>
<!-- Generator: Adobe Illustrator 18.1.1, SVG Export Plug-In . SVG Version: 6.00 Build 0)  -->
<svg version="1.1" id="Layer_1" xmlns="http://www.w3.org/2000/svg" xmlns:xlink="http://www.w3.org/1999/xlink" x="0px" y="0px"
	 viewBox="0 76.7 612 638.6" enable-background="new 0 76.7 612 638.6" xml:space="preserve">
<g>
	<circle fill="#FFFFFF" cx="66.5" cy="569" r="39.9"/>
	<path fill="#FFFFFF" d="M66.5,622.2C29.8,622.2,0,652,0,688.7v26.6h133v-26.6C133,652,103.3,622.2,66.5,622.2z"/>
</g>
<g>
	<circle fill="#FFFFFF" cx="226.2" cy="569" r="39.9"/>
	<path fill="#FFFFFF" d="M226.2,622.2c-36.7,0-66.5,29.8-66.5,66.5v26.6h133v-26.6C292.7,652,262.9,622.2,226.2,622.2z"/>
</g>
<g>
	<circle fill="#FFFFFF" cx="385.8" cy="569" r="39.9"/>
	<path fill="#FFFFFF" d="M385.8,622.2c-36.7,0-66.5,29.8-66.5,66.5v26.6h133v-26.6C452.3,652,422.6,622.2,385.8,622.2z"/>
</g>
<g>
	<circle fill="#FFFFFF" cx="545.5" cy="569" r="39.9"/>
	<path fill="#FFFFFF" d="M545.5,622.2c-36.7,0-66.5,29.8-66.5,66.5v26.6h133v-26.6C612,652,582.2,622.2,545.5,622.2z"/>
</g>
<path fill="#FFFFFF" d="M332.6,435.9h-53.2c-7.4,0-13.3-6-13.3-13.3s6-13.3,13.3-13.3h53.2c7.4,0,13.3,6,13.3,13.3
	S340,435.9,332.6,435.9z"/>
<path fill="#FFFFFF" d="M306,156.5c-7.4,0-13.3-6-13.3-13.3V90c0-7.4,6-13.3,13.3-13.3s13.3,6,13.3,13.3v53.2
	C319.3,150.6,313.4,156.5,306,156.5z"/>
<path fill="#FFFFFF" d="M186.3,276.3H133c-7.4,0-13.3-6-13.3-13.3c0-7.4,6-13.3,13.3-13.3h53.2c7.4,0,13.3,6,13.3,13.3
	C199.6,270.3,193.6,276.3,186.3,276.3z"/>
<path fill="#FFFFFF" d="M219.5,189.8c-3.4,0-6.8-1.3-9.4-3.9l-37.6-37.6c-5.2-5.2-5.2-13.6,0-18.8c5.2-5.2,13.6-5.2,18.8,0
	l37.6,37.6c5.2,5.2,5.2,13.6,0,18.8C226.3,188.5,222.9,189.8,219.5,189.8z"/>
<path fill="#FFFFFF" d="M392.5,189.8c-3.4,0-6.8-1.3-9.4-3.9c-5.2-5.2-5.2-13.6,0-18.8l37.6-37.6c5.2-5.2,13.6-5.2,18.8,0
	c5.2,5.2,5.2,13.6,0,18.8l-37.6,37.6C399.3,188.5,395.9,189.8,392.5,189.8z"/>
<path fill="#FFFFFF" d="M479,276.3h-53.2c-7.4,0-13.3-6-13.3-13.3c0-7.4,6-13.3,13.3-13.3H479c7.4,0,13.3,6,13.3,13.3
	C492.3,270.3,486.3,276.3,479,276.3z"/>
<path fill="#FFFFFF" d="M332.6,449.2h-53.2c-7.4,0-13.3,6-13.3,13.3s6,13.3,13.3,13.3h6.7c0,7.4,6,13.3,13.3,13.3h13.3
	c7.4,0,13.3-6,13.3-13.3h6.7c7.4,0,13.3-6,13.3-13.3S340,449.2,332.6,449.2z"/>
<path fill="#FFFFFF" d="M374.6,325.8c15.2-16.6,24.6-38.6,24.6-62.9c0-51.4-41.7-93.1-93.1-93.1s-93.1,41.7-93.1,93.1
	c0,23.5,8.7,44.8,23.1,61.2c6.2,7,30.2,35.4,30.2,58.5c0,7.4,6,13.3,13.3,13.3h53.2c7.4,0,13.3-6,13.3-13.3V382
	C346.4,360.5,366.8,334.8,374.6,325.8z"/>
</svg>
