<?xml version="1.0" encoding="utf-8"?>
<!-- Generator: Adobe Illustrator 18.1.1, SVG Export Plug-In . SVG Version: 6.00 Build 0)  -->
<svg version="1.1" id="Layer_1" xmlns="http://www.w3.org/2000/svg" xmlns:xlink="http://www.w3.org/1999/xlink" x="0px" y="0px"
	 viewBox="-289 381 32 32" enable-background="new -289 381 32 32" xml:space="preserve">
<g id="location">
	<path fill="#FFFFFF" d="M-273,398.7c3.3,0,6-2.7,6-6s-2.7-6-6-6c-3.3,0-6,2.7-6,6S-276.3,398.7-273,398.7z M-273,387.7
		c2.8,0,5,2.2,5,5s-2.2,5-5,5c-2.8,0-5-2.2-5-5S-275.8,387.7-273,387.7z"/>
	<path fill="#FFFFFF" d="M-273,381c-6.6,0-12,5.3-12,12c0,7,6,14.2,10.4,19.2c0,0,0.7,0.8,1.6,0.8c0,0,0.1,0,0.1,0
		c0.9,0,1.6-0.8,1.6-0.8c4.4-5,10.4-12.2,10.4-19.2C-261,386.3-266.4,381-273,381z M-272.9,410.9c0,0-0.1,0.1-0.1,0.1
		c0,0-0.1-0.1-0.1-0.1c-3.7-4.2-9.9-11.3-9.9-17.8c0-5.5,4.5-10,10-10c5.5,0,10,4.5,10,10C-263,399.5-269.2,406.6-272.9,410.9z"/>
</g>
</svg>
