<?xml version="1.0" encoding="utf-8"?>
<!-- Generator: Adobe Illustrator 18.1.1, SVG Export Plug-In . SVG Version: 6.00 Build 0)  -->
<svg version="1.1" id="Layer_1" xmlns="http://www.w3.org/2000/svg" xmlns:xlink="http://www.w3.org/1999/xlink" x="0px" y="0px"
	 viewBox="-255 358.2 100 77.8" enable-background="new -255 358.2 100 77.8" xml:space="preserve">
<path fill="#FFFFFF" d="M-163.4,367.4H-230v-6.2h-8.8v6.2h-7.8c-4.5,0-8.4,3.7-8.4,8.4v51.9c0,4.7,3.8,8.4,8.4,8.4h83.3
	c4.7,0,8.4-3.7,8.4-8.4v-51.9C-155,371.1-158.7,367.4-163.4,367.4z M-204.9,428.6c-11.9,0-21.7-9.6-21.7-21.5
	c0-11.9,9.7-21.7,21.7-21.7c11.8,0,21.5,9.7,21.5,21.7C-183.4,419-193.1,428.6-204.9,428.6z M-160.8,390.5h-24.7
	c-4.7-5.5-11.8-9.1-19.5-9.1c-7.8,0-14.8,3.6-19.6,9.1l-24.7,0.1v-13.2c0-2.3,1.9-4.3,4.3-4.3h80c2.3,0,4.3,1.9,4.3,4.3V390.5z"/>
<path fill="#FFFFFF" d="M-191.5,407.1c0,7.4-6,13.4-13.4,13.4c-7.5,0-13.6-6-13.6-13.4c0-7.4,6-13.6,13.6-13.6
	C-197.5,393.5-191.5,399.6-191.5,407.1z"/>
<rect x="-189.2" y="358.2" fill="#FFFFFF" width="18.1" height="7.4"/>
</svg>
